<?xml version="1.0" encoding="UTF-8"?>
<svg id="Layer_1" data-name="Layer 1" xmlns="http://www.w3.org/2000/svg" viewBox="0 0 340 162.56">
  <defs>
    <style>
      .cls-1 {
        fill: #fff;
      }
    </style>
  </defs>
  <g id="Artboard">
    <g id="blog-images-logo-ipsum">
      <polygon id="Path" class="cls-1" points="0 97.74 10.97 97.74 10.97 147.6 0 147.6 0 97.74"/>
      <path id="Shape" class="cls-1" d="M16.95,130.68c-.01-7.26,4.35-13.82,11.06-16.61s14.43-1.26,19.57,3.87c5.14,5.13,6.68,12.85,3.91,19.57s-9.32,11.09-16.58,11.09c-4.77,.05-9.36-1.81-12.74-5.19-3.38-3.37-5.25-7.96-5.21-12.73h0Zm25.74,0c-.11-4.28-3.65-7.67-7.93-7.6-4.28,.07-7.7,3.58-7.66,7.86,.04,4.28,3.51,7.73,7.79,7.73,2.12,.06,4.17-.77,5.65-2.29,1.48-1.52,2.26-3.59,2.15-5.71h0Z"/>
      <path id="Shape-2" data-name="Shape" class="cls-1" d="M93.72,113.66v32.5c0,11.5-8.88,16.35-17.86,16.35-6.44,.48-12.6-2.71-15.98-8.28l8.64-5.06c1.4,2.86,4.39,4.57,7.54,4.31,2.05,.35,4.15-.29,5.67-1.73,1.52-1.44,2.3-3.5,2.11-5.6v-3.16c-2.4,2.99-6.06,4.64-9.85,4.44-9.47,0-17.16-7.78-17.16-17.37s7.68-17.37,17.16-17.37c3.79-.18,7.44,1.47,9.85,4.44v-3.39l9.88-.1Zm-9.88,16.42c.14-3.38-1.77-6.5-4.81-7.89s-6.61-.77-9.02,1.57c-2.41,2.34-3.17,5.92-1.93,9.06s4.24,5.19,7.58,5.19c2.15,.15,4.27-.62,5.83-2.13,1.56-1.51,2.41-3.62,2.35-5.81Z"/>
      <path id="Shape-3" data-name="Shape" class="cls-1" d="M99.71,130.68c-.01-7.26,4.35-13.82,11.06-16.61,6.71-2.79,14.43-1.26,19.57,3.87,5.14,5.13,6.68,12.85,3.91,19.57-2.78,6.71-9.32,11.09-16.58,11.09-4.77,.05-9.36-1.81-12.74-5.19s-5.25-7.96-5.21-12.73Zm25.74,0c-.11-4.28-3.65-7.67-7.93-7.6-4.28,.07-7.7,3.58-7.66,7.86,.04,4.28,3.51,7.73,7.79,7.73,2.11,.04,4.14-.8,5.61-2.32,1.47-1.52,2.24-3.58,2.12-5.68h.07Z"/>
      <path id="Shape-4" data-name="Shape" class="cls-1" d="M140.59,103.95c0-3.43,2.9-6.22,6.48-6.22s6.48,2.78,6.48,6.22-2.9,6.22-6.48,6.22c-3.57-.02-6.46-2.79-6.48-6.22Zm1.1,9.22h10.68v34.43h-10.68v-34.43Z"/>
      <path id="Shape-5" data-name="Shape" class="cls-1" d="M195.4,130.74c.24,4.56-1.3,9.03-4.3,12.42-3,3.39-7.19,5.42-11.66,5.64-3.76,.18-7.4-1.34-9.95-4.17v16.94h-9.95v-47.9h9.95v3.22c2.55-2.83,6.2-4.35,9.95-4.17,4.46,.22,8.65,2.24,11.65,5.63,3,3.38,4.55,7.84,4.31,12.4Zm-9.95,0c-.11-4.44-3.68-7.96-8.03-7.92s-7.86,3.63-7.9,8.06c-.04,4.44,3.42,8.08,7.76,8.2,2.2,.14,4.35-.69,5.9-2.29,1.55-1.6,2.35-3.8,2.19-6.05h.07Z"/>
      <path id="Path-2" data-name="Path" class="cls-1" d="M227.33,137.39c0,7.81-6.78,11.15-14.24,11.15-6.09,.54-11.91-2.66-14.68-8.08l8.88-5.02c.74,2.52,3.16,4.19,5.8,4.01,2.47,0,3.69-.77,3.69-2.12,0-3.74-16.95-1.75-16.95-13.47,0-7.41,6.31-11.15,13.56-11.15,5.45-.16,10.56,2.62,13.36,7.28l-8.92,4.65c-.8-1.82-2.61-2.99-4.61-3-1.76,0-2.85,.67-2.85,1.92,.14,3.87,16.95,1.28,16.95,13.84Z"/>
      <path id="Path-3" data-name="Path" class="cls-1" d="M264.22,113.69v33.9h-10.23v-3.16c-2.41,2.85-6.06,4.39-9.82,4.14-6.82,0-12.85-4.88-12.85-14.06v-20.82h10.23v19.34c-.18,1.67,.41,3.33,1.6,4.52,1.2,1.19,2.87,1.79,4.57,1.63,3.75,0,6.38-2.15,6.38-6.96v-18.53h10.13Z"/>
      <path id="Path-4" data-name="Path" class="cls-1" d="M324.05,126.8v20.8h-10.14v-19.93c0-3.37-1.66-5.59-4.9-5.59s-5.34,2.39-5.34,6.4v19.12h-10.14v-19.93c0-3.37-1.62-5.59-4.9-5.59s-5.3,2.39-5.3,6.4v19.12h-10.14v-33.93h10.14v3.13c2.15-2.81,5.59-4.34,9.12-4.07,3.56-.17,6.94,1.53,8.92,4.48,2.3-3.08,6.02-4.77,9.87-4.48,7.7,0,12.81,5.59,12.81,14.07Z"/>
      <circle id="Oval" class="cls-1" cx="332.52" cy="105.22" r="7.48"/>
      <ellipse id="Oval-2" data-name="Oval" class="cls-1" cx="115.16" cy="36.4" rx="35.4" ry="35.4"/>
      <ellipse id="Oval-3" data-name="Oval" class="cls-1" cx="194.93" cy="36.4" rx="35.4" ry="35.4"/>
      <rect id="Rectangle" class="cls-1" x="1" width="70.79" height="70.81"/>
    </g>
  </g>
</svg>